<?xml version="1.0" encoding="UTF-8"?>
<svg id="Layer_1" xmlns="http://www.w3.org/2000/svg" version="1.1" viewBox="0 0 141.7 85">
  <!-- Generator: Adobe Illustrator 30.2.1, SVG Export Plug-In . SVG Version: 2.1.1 Build 1)  -->
  <defs>
    <style>
      .st0 {
        fill: #231f20;
      }
    </style>
  </defs>
  <path class="st0" d="M32.9,2.5c-9.6,0-17.4,8.1-17,17.8.4,8.8,7.5,15.9,16.3,16.3,0,0,.1,0,.2,0,5,.2,9,4.2,9,9.2v36.6h8.7V19.9c0-9.5-7.7-17.4-17.2-17.4Z"/>
  <path class="st0" d="M70.8,2.5c-9.6,0-17.4,8.1-17,17.8.4,8.8,7.5,15.9,16.3,16.3,0,0,.1,0,.2,0,5,.2,9,4.2,9,9.2v36.6h8.7V19.9c0-9.5-7.7-17.4-17.2-17.4Z"/>
  <path class="st0" d="M108.6,2.5c-9.6,0-17.4,8.1-17,17.8.4,8.8,7.5,15.9,16.3,16.3,0,0,.1,0,.2,0,5,.2,9,4.2,9,9.2v36.6h8.7V19.9c0-9.5-7.7-17.4-17.2-17.4Z"/>
</svg>